<?xml version="1.0" encoding="UTF-8"?>
<svg version="1.1" viewBox="0 0 2048 718" width="345" height="121" xmlns="http://www.w3.org/2000/svg">
<path transform="translate(60,36)" d="m0 0h38l5 5 14 19 13 18 12 17 13 18 14 20 26 36 9 12 3 3v-131l1-17h40l5 1v226l-3 2h-35l-5-5-14-19-24-34-13-18-24-34-13-18-11-16-6-7v149l-1 1-24 1h-19l-1-1z" fill="#666968"/>
<path transform="translate(1862,386)" d="m0 0h113l1 1v8l-1 6-57 1h-1812l-43-1-1-1v-13z" fill="#4A4A48"/>
<path transform="translate(1794,36)" d="m0 0h102l18 2 15 5 13 7 12 11 7 11 5 12 3 14v22l-4 16-6 12-9 12-12 9-9 4 2 6 15 29 12 22 17 34-1 1h-51l-4-5-10-20-10-19-8-17-10-19-2-3-39-1 1 38v44l-1 1-18 1h-27l-2-3v-223zm47 36-1 26v48l1 1h38l17-2 9-4 8-7 5-8 2-8v-18l-4-11-8-9-10-5-10-2-30-1z" fill="#676A69"/>
<path transform="translate(657,36)" d="m0 0h149l2 1v37l-2 1h-102v56l43-1h53l2 1v35l-1 1h-97v59h100l4 1v37l-2 1h-149l-1-131v-97z" fill="#686B6A"/>
<path transform="translate(1206,36)" d="m0 0h54l6 8 8 14 13 22 17 29 4 7v2l4-2 14-24 21-35 12-19 2-2h51l-2 5-7 9-11 18-12 18-22 34-19 29 1 4 14 22 13 20 11 17 16 25 15 23 1 5h-52l-4-5-15-24-16-26-15-24-3 1-24 38-10 16-14 22-2 2h-50l2-5 7-10 12-20 9-14 24-38 14-22 3-5-2-6-11-17-28-44-16-26-10-15-3-4z" fill="#666968"/>
<path transform="translate(1367,517)" d="m0 0 32 1 3 5 16 41 12 31 6 15 2 3 4-8 10-26 12-30 12-29 1-2h32v133h-24l-1-89h-2l-3 10-14 35-12 29-7 13-3 2h-9l-5-4-11-23-17-43-7-16-2-2-1 88h-24z" fill="#666968"/>
<path transform="translate(204,518)" d="m0 0h21l5 2 8 11 9 13 13 18 10 14 13 18 8 11 1-87h26v133l-3 1h-13l-7-2-11-13-14-20-12-17-13-18-12-16-2-2v87h-26l-1-1z" fill="#676A69"/>
<path transform="translate(1708,517)" d="m0 0 19 1 7 3 13 19 14 19 10 14 14 19 9 13 1-87h26v133h-22l-10-12-10-14-26-36-12-17-6-7-1 86h-27v-132z" fill="#676A69"/>
<path transform="translate(1198,517)" d="m0 0 19 1 5 2 13 17 20 28 14 19 13 18 2 2v-52l1-34h25l1 1v132h-22l-9-11-14-19-12-17-26-36-5-5 1 4v84h-26z" fill="#676A69"/>
<path transform="translate(665,517)" d="m0 0h52l21 2 10 4 9 7 6 8 4 10 1 4v16l-4 11-7 10-8 7-5 3 8 15 11 21 8 14v2l-6 1-24-1-6-9-10-19-9-19-2-1-22-1v49h-28v-133zm30 21-3 1v44h27l9-2 6-4 4-6 2-7-1-10-4-8-7-6-4-1z" fill="#676A69"/>
<path transform="translate(522,517)" d="m0 0h72l17 1v19l-1 3h-60l-1 33h37l21 1 1 1v18l-1 1h-58v35h61l1 2v20l-30 1h-58l-1-1z" fill="#696C6B"/>
<path transform="translate(1015,517)" d="m0 0 6 1 15 43 29 85 1 5-3 1-24-1-2-2-9-27-1-2h-48l-6 21-3 10h-29l1-5 6-15 16-48 13-37 9-26 2-2zm-12 27-4 8-12 39-2 5v3h36l-2-10-12-39-3-6z" fill="#676A69"/>
<path transform="translate(1565,517)" d="m0 0h66l23 1-1 21-1 1h-30l-30-1v35h59v10l-1 10h-58v35h61l1 2v19l-1 1-28 1h-59l-1-1-1-133z" fill="#686B6A"/>
<path transform="translate(63,517)" d="m0 0 88 1v21l-2 1h-59v33l57 1 1 1v18l-1 1h-58v35h60l2 2v20l-35 1h-47l-7-1v-133z" fill="#676A69"/>
<path transform="translate(411,517)" d="m0 0h52l10 1v20l-3 2h-35l-1 111h-28v-100l1-11h-37l-3-1v-21z" fill="#6A6D6C"/>
<path transform="translate(1914,517)" d="m0 0h61l1 1v16l-1 5-37 1-1 90v21h-28v-109l1-2h-38l-2-1v-21z" fill="#686B6A"/>
<path transform="translate(849,517)" d="m0 0h61l9 1-1 21-37 1-1 66v45h-28v-111h-38l-1-1v-21z" fill="#696C6B"/>
<path transform="translate(1114,518)" d="m0 0h27l1 1v132h-27l-1-1z" fill="#686B6A"/>
<path transform="translate(1862,386)" d="m0 0h113l1 1v8l-1 6-265-2-1-2 8-2 28-3 23-1 53-1 51-2-10-1z" fill="#666867"/>
<path transform="translate(663,391)" d="m0 0h111l68 1 7 3 2 3-3 1h-236l3-3 15-3 10-1z" fill="#5F5E5B"/>
<path transform="translate(1246,392)" d="m0 0h139l19 3 3 3-2 1h-193l3-3 8-2z" fill="#5F5E5B"/>
<path transform="translate(178,390)" d="m0 0h19l41 1 24 2 5 2v2h-2v2l-103 1-44-1 1-3 16-4 12-1z" fill="#5F5E5B"/>
<path transform="translate(1862,386)" d="m0 0h113v2l-49 1-63 2-49 2-31 2v2l4 2h-77l-1-2 8-2 28-3 23-1 53-1 51-2-10-1z" fill="#5F5E5B"/>
<path transform="translate(1862,386)" d="m0 0h113v2l-49 1-63 2-48 2v-3l57-2-10-1z" fill="#60615E"/>
<path transform="translate(1402,569)" d="m0 0 6 1 5 4 3 8 2 15 2 3-3 3-6-1-2-6h-2l-8-20v-6z" fill="#5F5E5B"/>
<path transform="translate(1604,588)" d="m0 0h15l1 2-2 3-14-1-1-3z" fill="#5F5E5B"/>
<path transform="translate(916,531)" d="m0 0 2 2v6h-8l1-5z" fill="#5F5E5B"/>
<path transform="translate(1405,36)" d="m0 0h6l-4 6h-4l1-5z" fill="#5D5C59"/>
</svg>
